<?xml version="1.0"?><svg id="Layer_1" data-name="Layer 1" xmlns="http://www.w3.org/2000/svg" viewBox="0 0 600 338">
  <defs>
    
  </defs>
  <polygon class="cls-1" points="132.36 164.39 111.01 164.39 111.01 144.35 100 144.35 100 193.93 111.01 193.93 111.01 174.03 132.36 174.03 132.36 193.93 143.36 193.93 143.36 144.35 132.36 144.35 132.36 164.39"></polygon>
  <path class="cls-1" d="M168.75,144.35l-20.18,49.58h10.93l4.07-10.41h19.71l4.03,10.41h11.3l-20.03-49.58h-9.83ZM166.89,175.02l2.96-7.58c.39-1.09.81-2.2,1.25-3.33.44-1.13.86-2.3,1.25-3.51.39-1.19.76-2.36,1.13-3.51.36,1.11.74,2.27,1.14,3.48.44,1.32.87,2.57,1.28,3.75.41,1.18.77,2.15,1.06,2.91l3.02,7.79h-13.1Z"></path>
  <path class="cls-1" d="M235.22,174.03c2.59-1.42,4.63-3.34,6.13-5.77,1.49-2.43,2.24-5.13,2.24-8.11s-.74-5.71-2.24-8.07c-1.49-2.36-3.54-4.24-6.13-5.63-2.59-1.39-5.48-2.09-8.66-2.09h-22.74v49.58h10.64v-17.78h8.12l10.37,17.78,12.77.07-11.64-19.41c.39-.17.77-.36,1.15-.57ZM231.84,164.15c-.54,1.06-1.31,1.89-2.31,2.48-1,.59-2.17.88-3.49.88h-11.59v-13.95h10.2c1.61,0,3.03.29,4.25.88,1.22.59,2.15,1.41,2.79,2.44.63,1.04.95,2.27.95,3.68,0,1.32-.27,2.52-.81,3.58Z"></path>
  <path class="cls-1" d="M300.26,168.79c-.07-.76-.14-1.39-.18-1.91h-23.77v8.85h13.2c-.04,1.22-.34,2.38-.91,3.47-.61,1.18-1.47,2.21-2.57,3.08-1.1.88-2.37,1.55-3.81,2.02-1.44.47-3,.71-4.66.71-2.3,0-4.45-.41-6.46-1.24-2.01-.83-3.75-1.96-5.25-3.4-1.49-1.44-2.67-3.14-3.52-5.1-.86-1.96-1.28-4.05-1.28-6.27s.4-4.37,1.21-6.3c.81-1.93,1.95-3.61,3.41-5.03,1.47-1.42,3.17-2.52,5.1-3.33,1.93-.8,4.05-1.2,6.35-1.2,1.61,0,3.19.22,4.73.67,1.54.45,3,1.09,4.37,1.91,1.37.83,2.69,1.83,3.96,3.01l6.82-6.94c-1.37-1.61-3.08-3.02-5.14-4.25-2.05-1.23-4.33-2.2-6.82-2.9-2.49-.71-5.11-1.06-7.85-1.06-3.96,0-7.6.64-10.93,1.91-3.33,1.27-6.23,3.06-8.69,5.35-2.47,2.29-4.38,4.98-5.72,8.08-1.34,3.09-2.02,6.46-2.02,10.09s.65,7.01,1.94,10.13c1.3,3.12,3.14,5.83,5.54,8.14,2.4,2.32,5.25,4.12,8.55,5.42,3.3,1.3,6.93,1.95,10.9,1.95,3.37,0,6.5-.53,9.39-1.59,2.89-1.06,5.39-2.56,7.52-4.5,2.13-1.93,3.79-4.25,4.99-6.94,1.2-2.69,1.8-5.64,1.8-8.85,0-.42-.01-1-.04-1.74-.03-.73-.07-1.48-.15-2.23Z"></path>
  <path class="cls-1" d="M339.62,174.03c2.59-1.42,4.63-3.34,6.13-5.77,1.49-2.43,2.24-5.13,2.24-8.11s-.74-5.71-2.24-8.07c-1.49-2.36-3.54-4.24-6.13-5.63-2.59-1.39-5.48-2.09-8.66-2.09h-22.74v49.58h10.64v-17.78h8.12l10.37,17.78,12.77.07-11.64-19.41c.39-.18.77-.36,1.15-.57ZM336.24,164.15c-.54,1.06-1.31,1.89-2.31,2.48-1,.59-2.17.89-3.49.89h-11.59v-13.95h10.2c1.61,0,3.03.29,4.25.88,1.22.59,2.15,1.4,2.79,2.44.63,1.04.95,2.27.95,3.68,0,1.32-.27,2.52-.81,3.58Z"></path>
  <path class="cls-1" d="M399.08,150.65c-2.37-2.31-5.14-4.11-8.29-5.38-3.16-1.27-6.64-1.91-10.45-1.91s-7.24.64-10.42,1.91c-3.18,1.27-5.95,3.06-8.33,5.35-2.37,2.29-4.2,4.99-5.47,8.11-1.27,3.12-1.91,6.54-1.91,10.27s.63,7.09,1.91,10.23c1.27,3.14,3.09,5.86,5.47,8.15,2.37,2.29,5.15,4.07,8.33,5.35,3.18,1.27,6.68,1.91,10.49,1.91s7.23-.64,10.38-1.91c3.15-1.27,5.92-3.07,8.29-5.38,2.37-2.31,4.19-5.03,5.47-8.14,1.27-3.12,1.91-6.52,1.91-10.2s-.64-7.08-1.91-10.2c-1.27-3.12-3.09-5.83-5.47-8.15ZM394.17,175.23c-.76,1.89-1.8,3.53-3.12,4.92-1.32,1.39-2.89,2.48-4.7,3.26-1.81.78-3.82,1.17-6.02,1.17s-4.13-.39-5.94-1.17c-1.81-.78-3.4-1.86-4.77-3.26-1.37-1.39-2.41-3.03-3.12-4.92-.71-1.89-1.06-3.97-1.06-6.23s.35-4.35,1.06-6.23c.71-1.89,1.75-3.53,3.12-4.92,1.37-1.39,2.96-2.48,4.77-3.26,1.81-.78,3.79-1.17,5.94-1.17s4.21.39,6.02,1.17c1.81.78,3.38,1.87,4.7,3.26s2.36,3.03,3.12,4.92c.76,1.89,1.14,3.97,1.14,6.23s-.38,4.34-1.14,6.23Z"></path>
  <path class="cls-1" d="M437.56,171.2c-.73,1.84-1.36,3.46-1.87,4.85-.51,1.39-.95,2.72-1.32,3.97-.03.11-.06.23-.1.34-.23-.71-.47-1.44-.71-2.18-.32-.97-.69-2.01-1.1-3.12-.42-1.11-.92-2.4-1.5-3.86l-10.71-26.84h-11.67l20.47,49.58h9.61l20.62-49.58h-11.59l-10.13,26.84Z"></path>
  <polygon class="cls-1" points="475.57 184.58 475.57 173.18 495.96 173.18 495.96 164.11 475.57 164.11 475.57 153.7 499.49 153.7 499.49 144.35 464.78 144.35 464.78 193.93 500 193.93 500 184.58 475.57 184.58"></polygon>
</svg>